<?xml version="1.0" standalone="no"?>
<!DOCTYPE svg PUBLIC "-//W3C//DTD SVG 20010904//EN"
 "http://www.w3.org/TR/2001/REC-SVG-20010904/DTD/svg10.dtd">
<svg version="1.0" xmlns="http://www.w3.org/2000/svg"
 width="645.000000pt" height="645.000000pt" viewBox="0 0 645.000000 645.000000"
 preserveAspectRatio="xMidYMid meet">
<metadata>
Created by potrace 1.14, written by Peter Selinger 2001-2017
</metadata>
<g transform="translate(0.000000,645.000000) scale(0.100000,-0.100000)"
fill="#000000" stroke="none">
<path d="M3143 6440 c-18 -7 -772 -442 -2176 -1253 -149 -85 -187 -122 -208
-201 -22 -80 7 -181 68 -237 24 -23 2175 -1269 2290 -1328 57 -29 149 -29 206
0 115 59 2266 1305 2290 1328 61 56 90 157 68 237 -20 73 -61 116 -172 181
-57 33 -579 334 -1159 669 l-1055 609 -65 2 c-36 2 -75 -1 -87 -7z"/>
<path d="M409 4315 c-51 -27 -95 -73 -116 -122 -11 -27 -13 -271 -13 -1375 l0
-1343 24 -51 c13 -28 39 -63 57 -77 19 -14 542 -318 1162 -677 861 -497 1141
-654 1180 -662 115 -24 238 50 271 163 14 47 16 202 16 1359 0 1440 3 1369
-62 1443 -24 27 -336 212 -1143 678 -610 353 -1132 652 -1160 665 -68 32 -153
32 -216 -1z"/>
<path d="M5815 4316 c-27 -13 -549 -312 -1160 -665 -807 -466 -1119 -651
-1143 -678 -65 -74 -62 -3 -62 -1443 0 -1157 2 -1312 16 -1359 33 -113 156
-187 271 -163 39 8 319 165 1180 662 620 359 1143 663 1162 677 18 14 44 49
57 77 l24 51 0 1343 c0 1104 -2 1348 -13 1375 -53 126 -206 183 -332 123z"/>
</g>
</svg>
