<?xml version="1.0" standalone="no"?>
<!DOCTYPE svg PUBLIC "-//W3C//DTD SVG 20010904//EN"
 "http://www.w3.org/TR/2001/REC-SVG-20010904/DTD/svg10.dtd">
<svg version="1.0" xmlns="http://www.w3.org/2000/svg"
 width="700.000000pt" height="700.000000pt" viewBox="0 0 700.000000 700.000000"
 preserveAspectRatio="xMidYMid meet">
<metadata>
Created by potrace 1.14, written by Peter Selinger 2001-2017
</metadata>
<g transform="translate(0.000000,700.000000) scale(0.100000,-0.100000)"
fill="#000000" stroke="none">
<path d="M692 6989 c-170 -28 -320 -107 -447 -234 -130 -130 -205 -276 -234
-455 -15 -91 -15 -5509 0 -5600 29 -179 104 -325 234 -455 132 -132 280 -207
461 -235 48 -7 919 -10 2839 -8 l2770 3 75 23 c290 89 493 292 582 582 l23 75
3 2770 c2 1920 -1 2791 -8 2839 -28 181 -103 329 -235 461 -130 130 -276 205
-455 234 -81 14 -5529 13 -5608 0z m5096 -1694 l2 -490 -652 -652 -652 -652
652 -653 652 -654 0 -492 0 -492 -498 0 -497 0 -650 650 -650 650 -650 -650
-650 -650 -490 2 -490 3 0 497 0 497 1080 1083 1080 1083 -730 3 -730 2 -350
350 -350 350 355 355 355 355 1930 -2 1930 -3 3 -490z"/>
</g>
</svg>
